<?xml version="1.0" encoding="UTF-8"?>
<svg width="26px" height="26px" viewBox="0 0 26 26" version="1.1" xmlns="http://www.w3.org/2000/svg" xmlns:xlink="http://www.w3.org/1999/xlink">
    <!-- Generator: Sketch 49.3 (51167) - http://www.bohemiancoding.com/sketch -->
    <title>Page 1</title>
    <desc>Created with Sketch.</desc>
    <defs>
        <polygon id="path-1" points="0 0.000559152481 24.4249576 0.000559152481 24.4249576 25.1020912 0 25.1020912"></polygon>
    </defs>
    <g id="Page-1" stroke="none" stroke-width="1" fill="none" fill-rule="evenodd">
        <g id="Artboard-Copy-3" transform="translate(-1169.000000, -513.000000)">
            <g id="Page-1" transform="translate(1169.649073, 513.664545)">
                <mask id="mask-2" fill="white">
                    <use xlink:href="#path-1"></use>
                </mask>
                <g id="Clip-2"></g>
                <path d="M19.0423792,4.56500915 C18.4390831,4.56500915 17.9476175,5.05647475 17.9476175,5.65977085 C17.9476175,6.26306695 18.4390831,6.75158964 19.0423792,6.75158964 C19.6486182,6.75158964 20.1371409,6.26306695 20.1371409,5.65977085 C20.1371409,5.05647475 19.6486182,4.56500915 19.0423792,4.56500915 Z M12.0618019,8.0935556 C10.9788118,8.0935556 9.9487941,8.51733432 9.15420899,9.28543325 C8.2889941,10.1300478 7.78869978,11.304268 7.78869978,12.516746 C7.78869978,14.9505308 9.77810545,16.9399364 12.2118902,16.9399364 C14.6339033,16.9399364 16.5821083,14.9829027 16.6350806,12.4932028 L16.6350806,12.4873169 C16.6939388,9.82104247 15.028253,8.17889992 12.1795182,8.0935556 L12.0618019,8.0935556 Z M12.2118902,19.1824322 C8.53325545,19.1824322 5.54620403,16.1953808 5.54620403,12.516746 C5.54620403,10.7009719 6.29075971,8.93817013 7.58858205,7.6786056 C8.85991821,6.44847014 10.5373757,5.79514461 12.2442622,5.84811695 C16.3643331,5.96289035 18.9688065,8.59090701 18.8805193,12.5402893 C18.7981178,16.2660105 15.8699246,19.1824322 12.2118902,19.1824322 Z M7.17068914,1.83399071 C4.23072425,1.83399071 1.8351973,4.23246057 1.8351973,7.16948255 L1.8351973,17.9316964 C1.8351973,20.8716613 4.23072425,23.2671882 7.17068914,23.2671882 L17.2560342,23.2671882 C20.1930561,23.2671882 22.591526,20.8716613 22.591526,17.9316964 L22.591526,7.16948255 C22.591526,4.23246057 20.1930561,1.83399071 17.2560342,1.83399071 L7.17068914,1.83399071 Z M17.2560342,25.1035627 L7.17068914,25.1035627 C3.21542106,25.1035627 -0.00117716312,21.8869644 -0.00117716312,17.9316964 L-0.00117716312,7.16948255 C-0.00117716312,3.21715738 3.21542106,0.000559152481 7.17068914,0.000559152481 L17.2560342,0.000559152481 C21.2083593,0.000559152481 24.4249576,3.21715738 24.4249576,7.16948255 L24.4249576,17.9316964 C24.4249576,21.8869644 21.2083593,25.1035627 17.2560342,25.1035627 Z" id="Fill-1" fill="#FFFFFF" mask="url(#mask-2)"></path>
            </g>
        </g>
    </g>
</svg>