<svg xmlns="http://www.w3.org/2000/svg" xmlns:xlink="http://www.w3.org/1999/xlink" width="33" height="37" viewBox="0 0 33 37">
    <defs>
        <path id="a" d="M0 0h31.81v35.97H0z"/>
    </defs>
    <g fill="none" fill-rule="evenodd" opacity=".224" transform="translate(.815 .888)">
        <mask id="b" fill="#fff">
            <use xlink:href="#a"/>
        </mask>
        <path fill="#FFF" d="M21.156 21.08c.736.004 1.276.635 1.094 1.278-.162.567-.843.905-1.453.72-.584-.179-.898-.722-.732-1.262.138-.443.575-.739 1.091-.735zm-.912-9.174l1.924.014c-.14 2.673-.278 5.334-.42 8.027-.388-.002-.762 0-1.137-.016-.034 0-.09-.111-.092-.175-.031-.705-.053-1.41-.08-2.116l-.195-5.52c-.003-.063 0-.127 0-.214zm-6.446 7.916c.969-1.606 2.415-2.716 3.863-3.827.361-.28.718-.565 1.077-.848.044-.033.09-.062.16-.109-.08 1.185-.46 2.213-1.213 3.096-.684.801-1.547 1.368-2.448 1.887-.249.146-.501.286-.746.444 1.74-.563 3.466-.474 5.19.078-1.573 1.297-3.375 1.355-5.268.983.574.301.919.78 1.111 1.38-.508.146-1.295.035-1.85-1.008-.003.222-.005.443-.005.665l-.005.694-.783-.005.009-1.35c-.263.283-.489.587-.772.814-.309.247-.701.241-1.116.201.206-.63.558-1.104 1.14-1.406-1.895.345-3.696.262-5.313-1.07 1.79-.514 3.514-.581 5.254-.013l-.24-.141c-.891-.513-1.77-1.045-2.514-1.77-.915-.896-1.43-1.98-1.557-3.252-.009-.085-.009-.169-.014-.272.04.012.07.012.089.027.928.757 1.87 1.504 2.783 2.28.825.703 1.546 1.504 2.097 2.445.009.018.027.031.034.042-.966-3.488-.587-6.904.585-10.277.67 1.651.963 3.373 1.052 5.132.089 1.757-.018 3.495-.6 5.18zm.969 8.93c-.569.662-1.116 1.298-1.664 1.94-.794-.858-2.026-.667-2.54-.088-.58.654-.567 1.779.049 2.407.656.673 1.622.62 2.49-.161.02.034.037.078.064.109l1.57 1.873c-.254.18-.485.369-.74.52-1.78 1.057-4.36.728-5.688-.74-1.1-1.214-1.346-2.643-.861-4.171.481-1.52 1.597-2.388 3.132-2.695 1.346-.268 2.629-.054 3.795.705.13.086.247.19.393.3zm4.574 3.847c.215-.623.424-1.234.634-1.84.017-.004.031-.006.046-.008l.605 1.857-1.285-.009zm5.166 3.06c-.982-2.52-1.964-5.04-2.94-7.562-.053-.133-.124-.163-.256-.163-.829 0-1.657-.004-2.486-.019-.165-.001-.232.057-.29.206-.921 2.258-1.848 4.514-2.774 6.773-.115.281-.23.561-.346.848.048.013.068.024.086.024.88.007 1.758.016 2.638.012.06.002.149-.07.174-.13.113-.286.198-.58.314-.865.028-.066.124-.14.19-.14.75-.006 1.5.007 2.25.005.126.002.173.055.207.164.097.283.206.563.3.848.037.113.093.158.215.155.2-.01.4-.002.6 0l2.174.016c-.026-.082-.038-.129-.056-.173zm4.88-11.726c-.159.28-.422.37-.725.369l-25.346-.178c-.079 0-.157 0-.237-.004-.56-.014-.893-.589-.577-1.085.977-1.526 1.93-3.072 2.896-4.605 3.275-5.201 6.555-10.4 9.83-15.597.077-.12.151-.245.24-.354.353-.43.957-.391 1.245.083C20.715 9.12 24.717 15.674 28.72 22.23c.191.31.387.616.585.923.162.249.24.505.08.781zm1.97-1.831c-2.407-3.885-4.772-7.794-7.156-11.691-1.827-2.99-3.664-5.976-5.477-8.973C18.11.426 16.71-.217 15.392.068c-.987.212-1.663.803-2.188 1.644-2.282 3.643-4.583 7.27-6.873 10.908-1.983 3.156-3.96 6.313-5.935 9.473-.63 1.013-.487 2.198.28 3.104.628.745 1.455 1.105 2.43 1.11l12.793.091c4.222.03 8.44.058 12.663.086.207.002.414-.006.62-.03 2.117-.272 3.344-2.47 2.176-4.352z" mask="url(#b)"/>
    </g>
</svg>
