<?xml version="1.0" encoding="UTF-8"?>
<svg width="30px" height="25px" viewBox="0 0 30 25" version="1.1" xmlns="http://www.w3.org/2000/svg" xmlns:xlink="http://www.w3.org/1999/xlink">
    <!-- Generator: Sketch 49.3 (51167) - http://www.bohemiancoding.com/sketch -->
    <title>Page 1</title>
    <desc>Created with Sketch.</desc>
    <defs>
        <polygon id="path-1" points="0.00108142779 -0.000270356946 29.1904395 -0.000270356946 29.1904395 23.2747592 0.00108142779 23.2747592"></polygon>
    </defs>
    <g id="Page-1" stroke="none" stroke-width="1" fill="none" fill-rule="evenodd">
        <g id="Artboard-Copy-3" transform="translate(-1167.000000, -464.000000)">
            <g id="Page-1" transform="translate(1167.171727, 464.757391)">
                <mask id="mask-2" fill="white">
                    <use xlink:href="#path-1"></use>
                </mask>
                <g id="Clip-2"></g>
                <path d="M26.2040767,5.79618257 C26.214891,6.04761453 26.2202981,6.30175006 26.2202981,6.55588559 C26.2202981,14.3205371 20.1967453,23.2747592 9.18240333,23.2747592 C5.80023793,23.2747592 2.6505795,22.3014742 0.00108142779,20.6360754 C0.468798945,20.6874432 0.944627171,20.7171824 1.4285661,20.7171824 C4.23487121,20.7171824 6.81678005,19.7763403 8.8660857,18.2001593 C6.24632689,18.1541986 4.03480707,16.4536534 3.27240048,14.120473 C3.63738236,14.1880622 4.01317851,14.2259122 4.39978895,14.2259122 C4.94590998,14.2259122 5.47580959,14.1556194 5.97867351,14.0204409 C3.23725408,13.479727 1.17172701,11.105993 1.17172701,8.25913436 C1.17172701,8.23480223 1.17172701,8.21047011 1.17443058,8.18343441 C1.98009428,8.62411623 2.90471503,8.88906604 3.88611075,8.91880531 C2.27748692,7.86711678 1.22039126,6.06924309 1.22039126,4.03075171 C1.22039126,2.9520275 1.5177839,1.94359609 2.03416566,1.07575029 C4.98646352,4.63094414 9.39868889,6.96953172 14.3759603,7.21285297 C14.2732246,6.785689 14.2218568,6.33689647 14.2218568,5.87458609 C14.2218568,2.63030273 16.9037977,-0.000270356946 20.2102632,-0.000270356946 C21.9324369,-0.000270356946 23.4896929,0.713471982 24.581935,1.8543783 C25.9472376,1.59213206 27.2287295,1.10278598 28.3858572,0.429597188 C27.9370647,1.80030691 26.9881118,2.9520275 25.7525806,3.67928768 C26.9637797,3.53870207 28.1182039,3.22238444 29.1915209,2.75466693 C28.3885608,3.93342321 27.3747223,4.96889032 26.2040767,5.79618257" id="Fill-1" fill="#FFFFFF" mask="url(#mask-2)"></path>
            </g>
        </g>
    </g>
</svg>